<svg width="102" height="25" viewBox="0 0 102 25" fill="none" xmlns="http://www.w3.org/2000/svg">
<path d="M0.679504 0.874268H4.19756V8.66063H11.6176V0.875183H15.1403V19.988H11.6176V12.0377H4.19756V19.988H0.679504V0.874268ZM26.286 13.7615C26.2847 14.5315 25.9773 15.2696 25.4311 15.8139C24.8849 16.3582 24.1445 16.6643 23.3723 16.665C22.6 16.6645 21.8593 16.3585 21.3129 15.8142C20.7665 15.2699 20.459 14.5316 20.4578 13.7615V5.53363H17.1197V13.7624C17.1197 17.1953 19.9241 19.988 23.3705 19.988C26.8169 19.988 29.6203 17.1953 29.6203 13.7624V5.53363H26.286V13.7624V13.7615ZM38.9362 5.6298C37.281 5.6298 36.1255 6.10792 35.0094 7.19879V0.874268H31.6622V12.5955C31.6622 16.9828 34.8469 19.9871 38.4246 19.9871C42.4019 19.9871 45.8869 16.9297 45.8869 12.8089C45.8869 8.74031 42.6729 5.6298 38.9362 5.6298ZM39.0189 16.9031C36.7501 16.9031 35.0168 15.0163 35.0168 12.8089C35.0168 10.6015 36.751 8.71467 39.0189 8.71467C40.9414 8.71467 42.6766 10.6015 42.6766 12.8089C42.6766 15.0163 40.9405 16.9031 39.0189 16.9031ZM51.5085 6.46971C51.5085 4.79355 52.6291 4.26231 53.8572 4.26231C54.8456 4.26231 56.1536 5.00696 57.006 5.91099L59.1949 3.35828C58.1009 1.89645 55.8863 0.885259 54.0712 0.885259C50.4402 0.885259 47.8251 2.98641 47.8251 6.46971C47.8251 12.9307 55.8054 10.8827 55.8054 14.4997C55.8054 15.6153 54.7124 16.5999 53.4576 16.5999C51.4827 16.5999 50.8407 15.6428 49.9341 14.6316L47.5045 17.1312C49.0532 19.0189 50.9748 19.977 53.2702 19.977C56.713 19.977 59.4888 17.8493 59.4888 14.5254C59.4888 7.34626 51.5085 9.58022 51.5085 6.46971ZM68.3014 5.44203C64.7246 5.44203 61.54 8.44538 61.54 12.8336V24.5851H64.8872V18.2312C66.0032 19.3212 67.1578 19.8011 68.813 19.8011C72.5497 19.8011 75.7637 16.6906 75.7637 12.622C75.7637 8.50034 72.2778 5.44295 68.3014 5.44295V5.44203ZM68.8966 16.7163C66.6278 16.7163 64.8936 14.8267 64.8936 12.6211C64.8936 10.4137 66.6287 8.52598 68.8966 8.52598C70.8182 8.52598 72.5534 10.4128 72.5534 12.6202C72.5534 14.8267 70.8173 16.7163 68.8966 16.7163ZM100.403 16.9031C98.4281 16.9031 97.8677 16.0522 97.8677 14.7488V8.98029H100.937V6.05662H97.8677V2.20054L94.4792 3.7155V15.4679C94.4792 18.4721 96.5606 19.9889 99.4146 19.9889C99.8417 19.9889 100.43 19.9614 100.751 19.8827L101.578 16.8509C101.205 16.8775 100.778 16.904 100.403 16.904V16.9031Z" fill="#050038"/>
</svg>
