<svg width="113" height="28" viewBox="0 0 113 28" fill="none" xmlns="http://www.w3.org/2000/svg">
<path d="M20.9219 27H16.4922V15.627H5.04883V27H0.601562V1.40625H5.04883V12.0586H16.4922V1.40625H20.9219V27ZM34.1582 27.3516C31.4512 27.3516 29.2539 26.502 27.5664 24.8027C25.8906 23.0918 25.0527 20.8184 25.0527 17.9824V17.4551C25.0527 15.5566 25.416 13.8633 26.1426 12.375C26.8809 10.875 27.9121 9.70898 29.2363 8.87695C30.5605 8.04492 32.0371 7.62891 33.666 7.62891C36.2559 7.62891 38.2539 8.45508 39.6602 10.1074C41.0781 11.7598 41.7871 14.0977 41.7871 17.1211V18.8438H29.3594C29.4883 20.4141 30.0098 21.6562 30.9238 22.5703C31.8496 23.4844 33.0098 23.9414 34.4043 23.9414C36.3613 23.9414 37.9551 23.1504 39.1855 21.5684L41.4883 23.7656C40.7266 24.9023 39.707 25.7871 38.4297 26.4199C37.1641 27.041 35.7402 27.3516 34.1582 27.3516ZM33.6484 11.0566C32.4766 11.0566 31.5273 11.4668 30.8008 12.2871C30.0859 13.1074 29.6289 14.25 29.4297 15.7148H37.5684V15.3984C37.4746 13.9688 37.0938 12.8906 36.4258 12.1641C35.7578 11.4258 34.832 11.0566 33.6484 11.0566ZM49.6621 27H45.3906V0H49.6621V27ZM58.873 27H54.6016V0H58.873V27ZM62.7402 17.3145C62.7402 15.4512 63.1094 13.7754 63.8477 12.2871C64.5859 10.7871 65.623 9.63867 66.959 8.8418C68.2949 8.0332 69.8301 7.62891 71.5645 7.62891C74.1309 7.62891 76.2109 8.45508 77.8047 10.1074C79.4102 11.7598 80.2773 13.9512 80.4062 16.6816L80.4238 17.6836C80.4238 19.5586 80.0605 21.2344 79.334 22.7109C78.6191 24.1875 77.5879 25.3301 76.2402 26.1387C74.9043 26.9473 73.3574 27.3516 71.5996 27.3516C68.916 27.3516 66.7656 26.4609 65.1484 24.6797C63.543 22.8867 62.7402 20.502 62.7402 17.5254V17.3145ZM67.0117 17.6836C67.0117 19.6406 67.416 21.1758 68.2246 22.2891C69.0332 23.3906 70.1582 23.9414 71.5996 23.9414C73.041 23.9414 74.1602 23.3789 74.957 22.2539C75.7656 21.1289 76.1699 19.4824 76.1699 17.3145C76.1699 15.3926 75.7539 13.8691 74.9219 12.7441C74.1016 11.6191 72.9824 11.0566 71.5645 11.0566C70.1699 11.0566 69.0625 11.6133 68.2422 12.7266C67.4219 13.8281 67.0117 15.4805 67.0117 17.6836ZM103.17 1.40625V18.5098C103.17 21.2285 102.297 23.3848 100.551 24.9785C98.8164 26.5605 96.502 27.3516 93.6074 27.3516C90.6777 27.3516 88.3516 26.5723 86.6289 25.0137C84.9062 23.4434 84.0449 21.2695 84.0449 18.4922V1.40625H88.4746V18.5273C88.4746 20.2383 88.9082 21.5449 89.7754 22.4473C90.6426 23.3496 91.9199 23.8008 93.6074 23.8008C97.0293 23.8008 98.7402 21.9961 98.7402 18.3867V1.40625H103.17ZM112.627 27H108.197V1.40625H112.627V27Z" fill="black"/>
</svg>
